<?xml version="1.0" encoding="utf-8"?>
<!-- Generator: Adobe Illustrator 25.2.3, SVG Export Plug-In . SVG Version: 6.00 Build 0)  -->
<svg version="1.1" id="Layer_1" xmlns="http://www.w3.org/2000/svg" xmlns:xlink="http://www.w3.org/1999/xlink" x="0px" y="0px"
	 viewBox="0 0 128 128" style="enable-background:new 0 0 128 128;" xml:space="preserve">
<style type="text/css">
	.st0{fill:url(#SVGID_1_);}
	.st1{fill:#FFFFFF;}
</style>
<linearGradient id="SVGID_1_" gradientUnits="userSpaceOnUse" x1="64" y1="128" x2="64" y2="-9.094947e-13">
	<stop  offset="0" style="stop-color:#1E0055"/>
	<stop  offset="1" style="stop-color:#550050"/>
</linearGradient>
<circle class="st0" cx="64" cy="64" r="64"/>
<g>
	<path class="st1" d="M60.48,102.08c-8.64-2.16-14.47-9.85-14.09-18.75c0.2-4.61,2.06-8.53,5.26-11.82c1.04-1.07,2.8-0.83,3.56,0.47
		c1.54,2.63,3.04,5.28,4.57,7.91c0.61,1.05,0.78,2.15,0.51,3.33c-0.11,0.49-0.12,0.98-0.06,1.47c0.2,1.76,1.61,3.43,3.19,3.78
		c1.76,0.39,4.04-1.02,4.64-2.89c0.22-0.69,0.19-1.31-0.2-1.98c-5.83-10.05-11.63-20.12-17.44-30.19c-0.43-0.75-0.87-1.49-1.33-2.29
		c-0.15,0.26-0.27,0.45-0.39,0.65c-6.27,10.86-12.54,21.72-18.8,32.59c-0.53,0.92-1.3,1.41-2.32,1.56c-0.46,0.06-0.92,0.1-1.38,0.08
		c-2.87-0.15-5.73-0.1-8.6-0.05c-1.4,0.02-2.46-0.32-2.99-1.7c0-0.01-0.03-0.01-0.05-0.01c0-0.36,0-0.73,0-1.09
		c0.15-0.3,0.3-0.61,0.47-0.91c10.51-18.22,21.03-36.43,31.54-54.65c0.51-0.88,0.98-1.74,2.01-2.1c0.26,0,0.53,0,0.79,0
		c1.05,0.23,1.67,0.95,2.13,1.86c0.01,0.03,0.03,0.06,0.05,0.08c5.33,8.82,10.25,17.88,15.44,26.78c3.02,5.19,5.93,10.45,9.07,15.57
		c1.55,2.52,3.18,5,4.39,7.72c0.91,2.04,1.68,4.15,1.66,6.41c-0.09,7.09-3.35,12.4-9.28,16.15c-1.62,1.02-3.38,1.82-5.27,2.16
		C65.81,102.55,62.95,102.7,60.48,102.08z"/>
	<path class="st1" d="M113.45,84.73c-0.56,0.89-1.37,1.22-2.42,1.21c-3.36-0.04-6.72-0.04-10.08,0c-1.17,0.01-1.95-0.44-2.53-1.45
		C92.1,73.51,85.76,62.54,79.42,51.57c-0.07-0.13-0.15-0.25-0.26-0.44c-0.55,0.96-1.09,1.88-1.62,2.8
		c-1.02,1.77-3.14,1.77-4.16,0.01c-1.72-2.98-3.43-5.96-5.17-8.93c-0.57-0.97-0.57-1.86,0-2.83c2.89-4.96,5.76-9.94,8.61-14.92
		c0.45-0.78,0.95-1.43,1.81-1.76c0.26,0,0.53,0,0.79,0c1.03,0.22,1.61,0.93,2.12,1.8c1.8,3.08,3.67,6.13,5.48,9.2
		c7.62,12.94,14.92,26.07,22.39,39.1c1.33,2.32,2.69,4.64,4.03,6.95C113.45,83.28,113.45,84,113.45,84.73z"/>
</g>
</svg>
